<svg id="Logo" data-name="Logo" xmlns="http://www.w3.org/2000/svg" viewBox="0 0 106.44 11.04"><defs><style>.cls-1{fill:#cecdcc;}</style></defs><title>buoycall_logotype</title><path class="cls-1" d="M8.93,4.33h4.34c2.11,0,3.48,1,3.48,2.59A2,2,0,0,1,15.54,9a2.71,2.71,0,0,1,2.14,2.78c0,2-1.58,3.18-4.21,3.18H8.93Zm4.12,3.92c.62,0,.91-.31.91-.81a.78.78,0,0,0-.87-.86h-1.4V8.25Zm.34,4.45c1.09,0,1.44-.47,1.44-1.2s-.36-1.19-1.44-1.19H11.68V12.7Z" transform="translate(-8.93 -4.06)"/><path class="cls-1" d="M21.59,10.84V4.33h2.84v6.48c0,1.2.56,1.89,1.76,1.89S28,12,28,10.81V4.33H30.8v6.51c0,2.86-2,4.26-4.6,4.26S21.59,13.69,21.59,10.84Z" transform="translate(-8.93 -4.06)"/><path class="cls-1" d="M34.83,9.64a5.7,5.7,0,0,1,11.39,0,5.7,5.7,0,0,1-11.39,0Zm8.49,0a2.8,2.8,0,1,0-5.59,0,2.8,2.8,0,1,0,5.59,0Z" transform="translate(-8.93 -4.06)"/><path class="cls-1" d="M48.41,4.33h3.12l2.4,4.32,2.39-4.32h3l-4,6.87v3.75H52.47V11.28Z" transform="translate(-8.93 -4.06)"/><path class="cls-1" d="M74.7,15.08a5.41,5.41,0,0,1-5.53-5.45A5.35,5.35,0,0,1,74.54,4.2a5.16,5.16,0,0,1,4.59,2.28L77,7.93a2.63,2.63,0,0,0-2.4-1.26c-1.56,0-2.51,1.3-2.51,3a2.68,2.68,0,0,0,2.61,3,2.55,2.55,0,0,0,2.5-1.47l2.18,1.4A4.91,4.91,0,0,1,74.7,15.08Z" transform="translate(-8.93 -4.06)"/><path class="cls-1" d="M85,14.94H82.25l5.17-10.8c0-.11.14-.11.19,0l5.15,10.8H89.82L89.42,14h-4Zm2.36-5.49-1.06,2.47h2.15Z" transform="translate(-8.93 -4.06)"/><path class="cls-1" d="M96.55,4.33h2.84v8.23h4.51v2.39H96.55Z" transform="translate(-8.93 -4.06)"/><path class="cls-1" d="M108,4.33h2.84v8.23h4.51v2.39H108Z" transform="translate(-8.93 -4.06)"/></svg>