<svg id="Layer_1" data-name="Layer 1" xmlns="http://www.w3.org/2000/svg" viewBox="0 0 317.45 114.35"><defs><style>.cls-1{fill:#c6c6c5;}.cls-2,.cls-4,.cls-5{fill:none;stroke-miterlimit:10;}.cls-2,.cls-3,.cls-4,.cls-5{stroke:#999;}.cls-2,.cls-3,.cls-5{stroke-linecap:round;}.cls-2{stroke-dasharray:4 3 0 0;}.cls-3,.cls-6{fill:#fff;}.cls-3{stroke-linejoin:round;}.cls-4{stroke-width:3px;}.cls-5{stroke-width:0.5px;}.cls-7{fill:#999;}</style></defs><title>donation</title><path class="cls-1" d="M321.87-16.6l1.52-1.84a.21.21,0,0,0,0-.22.21.21,0,0,0-.19-.12H317V-19a.22.22,0,0,0-.21-.22.22.22,0,0,0-.21.22v8.64a.23.23,0,0,0,0,.09,3.84,3.84,0,0,0-3.75,3.18h0l-1.11,5.94c0,2.29,2.26,4.15,5,4.15s5-1.86,5-4.2l-1.16-5.91a3.84,3.84,0,0,0-3.69-3.17.23.23,0,0,0,0-.09v-4h6.26a.21.21,0,0,0,.19-.12.21.21,0,0,0,0-.22Z" transform="translate(-13.95 19.64)"/><polyline class="cls-2" points="85.98 56.4 64.62 47.91 42.01 54.37"/><polyline class="cls-2" points="63.31 58.75 85.08 67.82 102.03 56.34"/><polyline class="cls-2" points="0.5 57.45 13.71 65.92 40.78 59.71"/><polyline class="cls-2" points="26.54 69.63 52 62.3 69.92 71.26"/><polyline class="cls-2" points="95.23 71.62 70.33 81.03 48.34 70.44"/><rect class="cls-1" x="107.31" y="45.47" width="54.27" height="33.26"/><rect class="cls-3" x="110.45" y="41.33" width="54.27" height="33.26"/><line class="cls-4" x1="110.45" y1="50.14" x2="164.8" y2="50.14"/><line class="cls-5" x1="116.1" y1="60.65" x2="141.76" y2="60.65"/><rect class="cls-5" x="146.77" y="60.49" width="6.72" height="4.92"/><line class="cls-5" x1="116.1" y1="65.4" x2="133.12" y2="65.4"/><path class="cls-6" d="M322.3-17l1.52-1.84a.21.21,0,0,0,0-.22.21.21,0,0,0-.19-.12H317.4v-.26a.22.22,0,0,0-.21-.22.22.22,0,0,0-.21.22v8.64a.23.23,0,0,0,0,.09,3.84,3.84,0,0,0-3.75,3.18h0l-1.11,5.94c0,2.29,2.26,4.15,5,4.15s5-1.86,5-4.2l-1.16-5.91a3.84,3.84,0,0,0-3.69-3.17.23.23,0,0,0,0-.09v-4h6.26a.21.21,0,0,0,.19-.12.21.21,0,0,0,0-.22Z" transform="translate(-13.95 19.64)"/><path class="cls-7" d="M322.3-17l1.52-1.84a.21.21,0,0,0,0-.22.21.21,0,0,0-.19-.12H317.4v-.26a.22.22,0,0,0-.21-.22.22.22,0,0,0-.21.22v8.64a.23.23,0,0,0,0,.09,3.84,3.84,0,0,0-3.75,3.18h0l-1.11,5.94c0,2.29,2.26,4.15,5,4.15s5-1.86,5-4.2l-1.16-5.91a3.84,3.84,0,0,0-3.69-3.17.23.23,0,0,0,0-.09v-4h6.26a.21.21,0,0,0,.19-.12.21.21,0,0,0,0-.22Zm-1.64,9.56,1.15,5.86c0,2.06-2.08,3.73-4.63,3.73s-4.63-1.68-4.63-3.7l1-5.18h4.13a.21.21,0,0,0,.21-.21.21.21,0,0,0-.21-.21h-4.06l.06-.3a3.45,3.45,0,0,1,3.5-2.85A3.44,3.44,0,0,1,320.67-7.42Zm-3.26-7.8v-3.52h5.81l-1.35,1.63a.21.21,0,0,0,0,.27l1.35,1.63Z" transform="translate(-13.95 19.64)"/><path class="cls-1" d="M330.36,1.65l.78-.95a.11.11,0,0,0-.08-.18h-3.22V.39a.11.11,0,1,0-.22,0V4.85a.12.12,0,0,0,0,0,2,2,0,0,0-1.93,1.64h0l-.57,3.06a2.65,2.65,0,0,0,5.2,0l-.6-3a2,2,0,0,0-1.9-1.63.12.12,0,0,0,0,0V2.78h3.22a.11.11,0,0,0,.08-.18Z" transform="translate(-13.95 19.64)"/><path class="cls-6" d="M330.59,1.46l.78-.95a.11.11,0,0,0-.08-.18h-3.22V.2a.11.11,0,1,0-.22,0V4.65a.12.12,0,0,0,0,0,2,2,0,0,0-1.93,1.64h0l-.57,3.06a2.65,2.65,0,0,0,5.2,0l-.6-3a2,2,0,0,0-1.9-1.63.12.12,0,0,0,0,0V2.58h3.22a.11.11,0,0,0,.08-.18Z" transform="translate(-13.95 19.64)"/><path class="cls-7" d="M330.59,1.46l.78-.95a.11.11,0,0,0-.08-.18h-3.22V.2a.11.11,0,1,0-.22,0V4.65a.12.12,0,0,0,0,0,2,2,0,0,0-1.93,1.64h0l-.57,3.06a2.65,2.65,0,0,0,5.2,0l-.6-3a2,2,0,0,0-1.9-1.63.12.12,0,0,0,0,0V2.58h3.22a.11.11,0,0,0,.08-.18Zm-.84,4.92.59,3a2.44,2.44,0,0,1-4.77,0l.5-2.67h2.13a.11.11,0,0,0,0-.22h-2.09l0-.15a1.84,1.84,0,0,1,3.61,0Zm-1.68-4V.55h3l-.69.84a.11.11,0,0,0,0,.14l.69.84Z" transform="translate(-13.95 19.64)"/><path class="cls-6" d="M320.13,16.42l.78-.95a.11.11,0,0,0-.08-.18h-3.22v-.13a.11.11,0,1,0-.22,0v4.45a.12.12,0,0,0,0,0,2,2,0,0,0-1.93,1.64h0l-.57,3.06a2.65,2.65,0,0,0,5.2,0l-.6-3a2,2,0,0,0-1.9-1.63.12.12,0,0,0,0,0V17.54h3.22a.11.11,0,0,0,.08-.18Z" transform="translate(-13.95 19.64)"/><path class="cls-7" d="M320.13,16.42l.78-.95a.11.11,0,0,0-.08-.18h-3.22v-.13a.11.11,0,1,0-.22,0v4.45a.12.12,0,0,0,0,0,2,2,0,0,0-1.93,1.64h0l-.57,3.06a2.65,2.65,0,0,0,5.2,0l-.6-3a2,2,0,0,0-1.9-1.63.12.12,0,0,0,0,0V17.54h3.22a.11.11,0,0,0,.08-.18Zm-.84,4.92.59,3a2.44,2.44,0,0,1-4.77,0l.5-2.67h2.13a.11.11,0,0,0,0-.22h-2.09l0-.15a1.84,1.84,0,0,1,3.61,0Zm-1.68-4V15.51h3l-.69.84a.11.11,0,0,0,0,.14l.69.84Z" transform="translate(-13.95 19.64)"/><path class="cls-7" d="M70.7,84.24a1,1,0,0,1,1-1h.21a1,1,0,0,1,.91.53l3.39,5.31,3.41-5.33a1,1,0,0,1,.9-.51h.21a1,1,0,0,1,1,1v9.38a1,1,0,0,1-1,1,1,1,0,0,1-1-1V86.9L77,91a.92.92,0,0,1-1.65,0l-2.72-4.08v6.71a1,1,0,0,1-1,1,.94.94,0,0,1-1-1Z" transform="translate(-13.95 19.64)"/><path class="cls-7" d="M84,93.24,88.11,84a1.25,1.25,0,0,1,1.18-.8h.1a1.23,1.23,0,0,1,1.17.8l4.16,9.28a.86.86,0,0,1,.11.42.92.92,0,0,1-.93.94,1,1,0,0,1-1-.69L92,91.81H86.59L85.65,94a1,1,0,0,1-.91.62.9.9,0,0,1-.91-.91A1,1,0,0,1,84,93.24Zm7.33-3.17-2-4.53-2,4.53Z" transform="translate(-13.95 19.64)"/><path class="cls-7" d="M97,84.21a1,1,0,0,1,2,0v4.74l5.31-5.35a1,1,0,0,1,.82-.37.9.9,0,0,1,.91.91,1,1,0,0,1-.35.74l-3.49,3.36,3.78,4.69a1.07,1.07,0,0,1,.27.71,1,1,0,0,1-1,1,1,1,0,0,1-.83-.46l-3.6-4.59L98.93,91.3v2.32a1,1,0,0,1-2,0Z" transform="translate(-13.95 19.64)"/><path class="cls-7" d="M108.37,93.53V84.31a1,1,0,0,1,1-1h6.51a.89.89,0,0,1,.88.88.88.88,0,0,1-.88.88h-5.54V88h4.82a.89.89,0,0,1,.88.9.88.88,0,0,1-.88.87h-4.82v3H116a.89.89,0,0,1,.88.88.88.88,0,0,1-.88.88h-6.59A1,1,0,0,1,108.37,93.53Z" transform="translate(-13.95 19.64)"/><path class="cls-7" d="M123.25,93.24,127.41,84a1.25,1.25,0,0,1,1.18-.8h.1a1.23,1.23,0,0,1,1.17.8L134,93.24a.86.86,0,0,1,.11.42.92.92,0,0,1-.93.94,1,1,0,0,1-1-.69l-.91-2.1h-5.44L124.94,94a1,1,0,0,1-.91.62.9.9,0,0,1-.91-.91A1,1,0,0,1,123.25,93.24Zm7.33-3.17-2-4.53-2,4.53Z" transform="translate(-13.95 19.64)"/><path class="cls-7" d="M141.05,84.31a1,1,0,0,1,1-1h3.19c3.52,0,6,2.42,6,5.57v0a5.61,5.61,0,0,1-6,5.6H142a1,1,0,0,1-1-1Zm4.18,8.42a3.65,3.65,0,0,0,3.89-3.78v0a3.68,3.68,0,0,0-3.89-3.81H143v7.62Z" transform="translate(-13.95 19.64)"/><path class="cls-7" d="M153.07,88.95v0a5.86,5.86,0,0,1,11.72,0v0a5.86,5.86,0,0,1-11.72,0Zm9.65,0v0a3.84,3.84,0,0,0-3.81-4,3.79,3.79,0,0,0-3.78,4v0a3.83,3.83,0,0,0,3.81,4A3.77,3.77,0,0,0,162.72,88.95Z" transform="translate(-13.95 19.64)"/><path class="cls-7" d="M167.17,84.24a1,1,0,0,1,1-1h.21a1.24,1.24,0,0,1,1,.58l5.6,7.25V84.19a1,1,0,0,1,1.94,0v9.41a1,1,0,0,1-1,1h-.08a1.24,1.24,0,0,1-1-.59l-5.76-7.46v7.11a1,1,0,0,1-1.94,0Z" transform="translate(-13.95 19.64)"/><path class="cls-7" d="M179.17,93.24,183.33,84a1.25,1.25,0,0,1,1.18-.8h.1a1.23,1.23,0,0,1,1.17.8l4.16,9.28a.86.86,0,0,1,.11.42.92.92,0,0,1-.93.94,1,1,0,0,1-1-.69l-.91-2.1h-5.44L180.86,94a1,1,0,0,1-.91.62.9.9,0,0,1-.91-.91A1,1,0,0,1,179.17,93.24Zm7.33-3.17-2-4.53-2,4.53Z" transform="translate(-13.95 19.64)"/><path class="cls-7" d="M193.65,85.14h-2.72a.91.91,0,1,1,0-1.82h7.44a.91.91,0,0,1,0,1.82h-2.74v8.48a1,1,0,0,1-2,0Z" transform="translate(-13.95 19.64)"/><path class="cls-7" d="M201.37,84.21a1,1,0,0,1,2,0v9.41a1,1,0,0,1-2,0Z" transform="translate(-13.95 19.64)"/><path class="cls-7" d="M205.84,88.95v0a5.86,5.86,0,0,1,11.72,0v0a5.86,5.86,0,0,1-11.72,0Zm9.65,0v0a3.84,3.84,0,0,0-3.81-4,3.79,3.79,0,0,0-3.78,4v0a3.83,3.83,0,0,0,3.81,4A3.77,3.77,0,0,0,215.49,88.95Z" transform="translate(-13.95 19.64)"/><path class="cls-7" d="M219.93,84.24a1,1,0,0,1,1-1h.21a1.24,1.24,0,0,1,1,.58l5.6,7.25V84.19a1,1,0,0,1,1.94,0v9.41a1,1,0,0,1-1,1h-.08a1.24,1.24,0,0,1-1-.59l-5.76-7.46v7.11a1,1,0,0,1-1.94,0Z" transform="translate(-13.95 19.64)"/><path class="cls-1" d="M211.57,44a.18.18,0,0,0-.05-.12c-1.64-1.7-7.2-1.61-8.09-1.58-1.94-3.43-6.35-4.36-6.54-4.4a.18.18,0,0,0-.09.35c.9.3,1.18,2.6,1.23,3.7-3-.26-6.57,1.7-6.71,1.78-1.73.76-2.2.12-2.2.11-2.43-3.51-5.28-3.82-5.4-3.84a.18.18,0,0,0-.19.13.18.18,0,0,0,.08.21s3.39,2.13,1.63,10.11a.18.18,0,0,0,.25.21,8.52,8.52,0,0,0,3-2.27c0-.06,1.09-1.39,3-.26a18.07,18.07,0,0,0,6.49,2.1.34.34,0,0,1,.32.18,1.07,1.07,0,0,1,0,.63c0,.2-.1.41-.17.64a.18.18,0,0,0,0,0A13.9,13.9,0,0,1,197,54.16a.18.18,0,0,0,.16.28h0a9.41,9.41,0,0,0,5.27-4,15.37,15.37,0,0,0,3.07.21c1.17,0,1.92-.18,2.22-.6a.69.69,0,0,0,.11-.61l0-.05-1-1.24,1.87.06a.18.18,0,0,0,.11,0C211.6,46.28,211.57,44.05,211.57,44Z" transform="translate(-13.95 19.64)"/><path class="cls-6" d="M212.25,43.46a.18.18,0,0,0-.05-.12c-1.64-1.7-7.2-1.61-8.09-1.58-1.94-3.43-6.35-4.36-6.54-4.4a.18.18,0,0,0-.09.35c.9.3,1.18,2.6,1.23,3.7-3-.26-6.57,1.7-6.71,1.78-1.73.76-2.2.12-2.2.11-2.43-3.51-5.28-3.82-5.4-3.84a.18.18,0,0,0-.19.13.18.18,0,0,0,.08.21s3.39,2.13,1.63,10.11a.18.18,0,0,0,.25.21,8.52,8.52,0,0,0,3-2.27c0-.06,1.09-1.39,3-.26a18.07,18.07,0,0,0,6.49,2.1.34.34,0,0,1,.32.18,1.07,1.07,0,0,1,0,.63c0,.2-.1.41-.17.64a.18.18,0,0,0,0,0,13.9,13.9,0,0,1-1.17,2.48.18.18,0,0,0,.16.28h0a9.41,9.41,0,0,0,5.27-4,15.37,15.37,0,0,0,3.07.21c1.17,0,1.92-.18,2.22-.6a.69.69,0,0,0,.11-.61l0-.05-1-1.24,1.87.06a.18.18,0,0,0,.11,0C212.28,45.79,212.25,43.56,212.25,43.46Z" transform="translate(-13.95 19.64)"/><path class="cls-7" d="M212.25,43.46a.18.18,0,0,0-.05-.12c-1.64-1.7-7.2-1.61-8.09-1.58-1.94-3.43-6.35-4.36-6.54-4.4a.18.18,0,0,0-.09.35c.9.3,1.18,2.6,1.23,3.7-3-.26-6.57,1.7-6.71,1.78-1.73.76-2.2.12-2.2.11-2.43-3.51-5.28-3.82-5.4-3.84a.18.18,0,0,0-.19.13.18.18,0,0,0,.08.21s3.39,2.13,1.63,10.11a.18.18,0,0,0,.25.21,8.52,8.52,0,0,0,3-2.27c0-.06,1.09-1.39,3-.26a18.07,18.07,0,0,0,6.49,2.1.34.34,0,0,1,.32.18,1.07,1.07,0,0,1,0,.63c0,.2-.1.41-.17.64a.18.18,0,0,0,0,0,13.9,13.9,0,0,1-1.17,2.48.18.18,0,0,0,.16.28h0a9.41,9.41,0,0,0,5.27-4,15.37,15.37,0,0,0,3.07.21c1.17,0,1.92-.18,2.22-.6a.69.69,0,0,0,.11-.61l0-.05-1-1.24,1.87.06a.18.18,0,0,0,.11,0C212.28,45.79,212.25,43.56,212.25,43.46Zm-2.93,3.91-2.21-.07a.18.18,0,0,0-.17.1.18.18,0,0,0,0,.2l1.26,1.53a.34.34,0,0,1-.07.26c-.13.17-.56.47-1.92.44a15.05,15.05,0,0,1-3.12-.23.18.18,0,0,0-.19.08,9.55,9.55,0,0,1-4.69,3.79,10.64,10.64,0,0,0,1.16-2.85c.43-1.92-.27-2.7-.3-2.73a.18.18,0,0,0-.27.25,2.11,2.11,0,0,1,.34,1.37.75.75,0,0,0-.46-.17,18.06,18.06,0,0,1-6.33-2.05,2.57,2.57,0,0,0-3.48.35,8.06,8.06,0,0,1-2.54,2c1.23-6-.37-8.64-1.3-9.64a8.66,8.66,0,0,1,4.44,3.51s.61.93,2.67,0c0,0,3.85-2.08,6.72-1.72a.18.18,0,0,0,.15,0,.18.18,0,0,0,.06-.14,8.52,8.52,0,0,0-.82-3.69c1.37.43,4.21,1.59,5.58,4.1a.18.18,0,0,0,.17.1c.06,0,6.16-.22,7.87,1.41A5.3,5.3,0,0,1,209.32,47.38Z" transform="translate(-13.95 19.64)"/><circle class="cls-7" cx="193.39" cy="64.55" r="0.55"/><path class="cls-7" d="M201.8,47.93a.18.18,0,0,1-.14-.06,2.62,2.62,0,0,1-.24-2.71.18.18,0,0,1,.33.16,2.3,2.3,0,0,0,.19,2.3.18.18,0,0,1-.14.3Z" transform="translate(-13.95 19.64)"/><path class="cls-7" d="M203.48,47.23a.18.18,0,0,1-.15-.08,2.44,2.44,0,0,1-.11-2,.18.18,0,0,1,.34.13,2.11,2.11,0,0,0,.07,1.69.18.18,0,0,1-.15.29Z" transform="translate(-13.95 19.64)"/></svg>