<svg id="Layer_1" data-name="Layer 1" xmlns="http://www.w3.org/2000/svg" viewBox="0 0 300 110.14"><defs><style>.cls-1,.cls-4,.cls-5{fill:none;stroke-miterlimit:10;}.cls-1,.cls-3,.cls-4,.cls-5{stroke:#999;}.cls-1,.cls-3,.cls-5{stroke-linecap:round;}.cls-1{stroke-dasharray:4 3 0 0;}.cls-2{fill:#c6c6c5;}.cls-3,.cls-7{fill:#fff;}.cls-3{stroke-linejoin:round;}.cls-4{stroke-width:3px;}.cls-5{stroke-width:0.5px;}.cls-6{fill:#999;}</style></defs><title>donation</title><polyline class="cls-1" points="99.92 36.75 78.57 28.27 55.95 34.72"/><polyline class="cls-1" points="77.26 39.11 99.03 48.18 115.97 36.7"/><polyline class="cls-1" points="14.45 37.81 27.66 46.27 54.73 40.06"/><polyline class="cls-1" points="40.49 49.99 65.95 42.65 83.87 51.62"/><polyline class="cls-1" points="109.18 51.98 84.28 61.39 62.28 50.8"/><rect class="cls-2" x="121.26" y="25.82" width="54.27" height="33.26"/><rect class="cls-3" x="124.4" y="21.69" width="54.27" height="33.26"/><line class="cls-4" x1="124.4" y1="30.5" x2="178.74" y2="30.5"/><line class="cls-5" x1="130.05" y1="41.01" x2="155.71" y2="41.01"/><rect class="cls-5" x="160.71" y="40.85" width="6.72" height="4.92"/><line class="cls-5" x1="130.05" y1="45.76" x2="147.07" y2="45.76"/><path class="cls-6" d="M70.7,84.24a1,1,0,0,1,1-1h.21a1,1,0,0,1,.91.53l3.39,5.31,3.41-5.33a1,1,0,0,1,.9-.51h.21a1,1,0,0,1,1,1v9.38a1,1,0,0,1-1,1,1,1,0,0,1-1-1V86.9L77,91a.92.92,0,0,1-1.65,0l-2.72-4.08v6.71a1,1,0,0,1-1,1,.94.94,0,0,1-1-1Z"/><path class="cls-6" d="M84,93.24,88.11,84a1.25,1.25,0,0,1,1.18-.8h.1a1.23,1.23,0,0,1,1.17.8l4.16,9.28a.86.86,0,0,1,.11.42.92.92,0,0,1-.93.94,1,1,0,0,1-1-.69L92,91.81H86.59L85.65,94a1,1,0,0,1-.91.62.9.9,0,0,1-.91-.91A1,1,0,0,1,84,93.24Zm7.33-3.17-2-4.53-2,4.53Z"/><path class="cls-6" d="M97,84.21a1,1,0,0,1,2,0v4.74l5.31-5.35a1,1,0,0,1,.82-.37.9.9,0,0,1,.91.91,1,1,0,0,1-.35.74l-3.49,3.36,3.78,4.69a1.07,1.07,0,0,1,.27.71,1,1,0,0,1-1,1,1,1,0,0,1-.83-.46l-3.6-4.59L98.93,91.3v2.32a1,1,0,0,1-2,0Z"/><path class="cls-6" d="M108.37,93.53V84.31a1,1,0,0,1,1-1h6.51a.89.89,0,0,1,.88.88.88.88,0,0,1-.88.88h-5.54V88h4.82a.89.89,0,0,1,.88.9.88.88,0,0,1-.88.87h-4.82v3H116a.89.89,0,0,1,.88.88.88.88,0,0,1-.88.88h-6.59A1,1,0,0,1,108.37,93.53Z"/><path class="cls-6" d="M123.25,93.24,127.41,84a1.25,1.25,0,0,1,1.18-.8h.1a1.23,1.23,0,0,1,1.17.8L134,93.24a.86.86,0,0,1,.11.42.92.92,0,0,1-.93.94,1,1,0,0,1-1-.69l-.91-2.1h-5.44L124.94,94a1,1,0,0,1-.91.62.9.9,0,0,1-.91-.91A1,1,0,0,1,123.25,93.24Zm7.33-3.17-2-4.53-2,4.53Z"/><path class="cls-6" d="M141.05,84.31a1,1,0,0,1,1-1h3.19c3.52,0,6,2.42,6,5.57v0a5.61,5.61,0,0,1-6,5.6H142a1,1,0,0,1-1-1Zm4.18,8.42a3.65,3.65,0,0,0,3.89-3.78v0a3.68,3.68,0,0,0-3.89-3.81H143v7.62Z"/><path class="cls-6" d="M153.07,88.95v0a5.86,5.86,0,0,1,11.72,0v0a5.86,5.86,0,0,1-11.72,0Zm9.65,0v0a3.84,3.84,0,0,0-3.81-4,3.79,3.79,0,0,0-3.78,4v0a3.83,3.83,0,0,0,3.81,4A3.77,3.77,0,0,0,162.72,88.95Z"/><path class="cls-6" d="M167.17,84.24a1,1,0,0,1,1-1h.21a1.24,1.24,0,0,1,1,.58l5.6,7.25V84.19a1,1,0,0,1,1.94,0v9.41a1,1,0,0,1-1,1h-.08a1.24,1.24,0,0,1-1-.59l-5.76-7.46v7.11a1,1,0,0,1-1.94,0Z"/><path class="cls-6" d="M179.17,93.24,183.33,84a1.25,1.25,0,0,1,1.18-.8h.1a1.23,1.23,0,0,1,1.17.8l4.16,9.28a.86.86,0,0,1,.11.42.92.92,0,0,1-.93.94,1,1,0,0,1-1-.69l-.91-2.1h-5.44L180.86,94a1,1,0,0,1-.91.62.9.9,0,0,1-.91-.91A1,1,0,0,1,179.17,93.24Zm7.33-3.17-2-4.53-2,4.53Z"/><path class="cls-6" d="M193.65,85.14h-2.72a.91.91,0,1,1,0-1.82h7.44a.91.91,0,0,1,0,1.82h-2.74v8.48a1,1,0,0,1-2,0Z"/><path class="cls-6" d="M201.37,84.21a1,1,0,0,1,2,0v9.41a1,1,0,0,1-2,0Z"/><path class="cls-6" d="M205.84,88.95v0a5.86,5.86,0,0,1,11.72,0v0a5.86,5.86,0,0,1-11.72,0Zm9.65,0v0a3.84,3.84,0,0,0-3.81-4,3.79,3.79,0,0,0-3.78,4v0a3.83,3.83,0,0,0,3.81,4A3.77,3.77,0,0,0,215.49,88.95Z"/><path class="cls-6" d="M219.93,84.24a1,1,0,0,1,1-1h.21a1.24,1.24,0,0,1,1,.58l5.6,7.25V84.19a1,1,0,0,1,1.94,0v9.41a1,1,0,0,1-1,1h-.08a1.24,1.24,0,0,1-1-.59l-5.76-7.46v7.11a1,1,0,0,1-1.94,0Z"/><path class="cls-2" d="M211.57,44a.18.18,0,0,0-.05-.12c-1.64-1.7-7.2-1.61-8.09-1.58-1.94-3.43-6.35-4.36-6.54-4.4a.18.18,0,0,0-.09.35c.9.3,1.18,2.6,1.23,3.7-3-.26-6.57,1.7-6.71,1.78-1.73.76-2.2.12-2.2.11-2.43-3.51-5.28-3.82-5.4-3.84a.18.18,0,0,0-.19.13.18.18,0,0,0,.08.21s3.39,2.13,1.63,10.11a.18.18,0,0,0,.25.21,8.52,8.52,0,0,0,3-2.27c0-.06,1.09-1.39,3-.26a18.07,18.07,0,0,0,6.49,2.1.34.34,0,0,1,.32.18,1.07,1.07,0,0,1,0,.63c0,.2-.1.41-.17.64a.18.18,0,0,0,0,0A13.9,13.9,0,0,1,197,54.16a.18.18,0,0,0,.16.28h0a9.41,9.41,0,0,0,5.27-4,15.37,15.37,0,0,0,3.07.21c1.17,0,1.92-.18,2.22-.6a.69.69,0,0,0,.11-.61l0-.05-1-1.24,1.87.06a.18.18,0,0,0,.11,0C211.6,46.28,211.57,44.05,211.57,44Z"/><path class="cls-7" d="M212.25,43.46a.18.18,0,0,0-.05-.12c-1.64-1.7-7.2-1.61-8.09-1.58-1.94-3.43-6.35-4.36-6.54-4.4a.18.18,0,0,0-.09.35c.9.3,1.18,2.6,1.23,3.7-3-.26-6.57,1.7-6.71,1.78-1.73.76-2.2.12-2.2.11-2.43-3.51-5.28-3.82-5.4-3.84a.18.18,0,0,0-.19.13.18.18,0,0,0,.08.21s3.39,2.13,1.63,10.11a.18.18,0,0,0,.25.21,8.52,8.52,0,0,0,3-2.27c0-.06,1.09-1.39,3-.26a18.07,18.07,0,0,0,6.49,2.1.34.34,0,0,1,.32.18,1.07,1.07,0,0,1,0,.63c0,.2-.1.41-.17.64a.18.18,0,0,0,0,0,13.9,13.9,0,0,1-1.17,2.48.18.18,0,0,0,.16.28h0a9.41,9.41,0,0,0,5.27-4,15.37,15.37,0,0,0,3.07.21c1.17,0,1.92-.18,2.22-.6a.69.69,0,0,0,.11-.61l0-.05-1-1.24,1.87.06a.18.18,0,0,0,.11,0C212.28,45.79,212.25,43.56,212.25,43.46Z"/><path class="cls-6" d="M212.25,43.46a.18.18,0,0,0-.05-.12c-1.64-1.7-7.2-1.61-8.09-1.58-1.94-3.43-6.35-4.36-6.54-4.4a.18.18,0,0,0-.09.35c.9.3,1.18,2.6,1.23,3.7-3-.26-6.57,1.7-6.71,1.78-1.73.76-2.2.12-2.2.11-2.43-3.51-5.28-3.82-5.4-3.84a.18.18,0,0,0-.19.13.18.18,0,0,0,.08.21s3.39,2.13,1.63,10.11a.18.18,0,0,0,.25.21,8.52,8.52,0,0,0,3-2.27c0-.06,1.09-1.39,3-.26a18.07,18.07,0,0,0,6.49,2.1.34.34,0,0,1,.32.18,1.07,1.07,0,0,1,0,.63c0,.2-.1.41-.17.64a.18.18,0,0,0,0,0,13.9,13.9,0,0,1-1.17,2.48.18.18,0,0,0,.16.28h0a9.41,9.41,0,0,0,5.27-4,15.37,15.37,0,0,0,3.07.21c1.17,0,1.92-.18,2.22-.6a.69.69,0,0,0,.11-.61l0-.05-1-1.24,1.87.06a.18.18,0,0,0,.11,0C212.28,45.79,212.25,43.56,212.25,43.46Zm-2.93,3.91-2.21-.07a.18.18,0,0,0-.17.1.18.18,0,0,0,0,.2l1.26,1.53a.34.34,0,0,1-.07.26c-.13.17-.56.47-1.92.44a15.05,15.05,0,0,1-3.12-.23.18.18,0,0,0-.19.08,9.55,9.55,0,0,1-4.69,3.79,10.64,10.64,0,0,0,1.16-2.85c.43-1.92-.27-2.7-.3-2.73a.18.18,0,0,0-.27.25,2.11,2.11,0,0,1,.34,1.37.75.75,0,0,0-.46-.17,18.06,18.06,0,0,1-6.33-2.05,2.57,2.57,0,0,0-3.48.35,8.06,8.06,0,0,1-2.54,2c1.23-6-.37-8.64-1.3-9.64a8.66,8.66,0,0,1,4.44,3.51s.61.93,2.67,0c0,0,3.85-2.08,6.72-1.72a.18.18,0,0,0,.15,0,.18.18,0,0,0,.06-.14,8.52,8.52,0,0,0-.82-3.69c1.37.43,4.21,1.59,5.58,4.1a.18.18,0,0,0,.17.1c.06,0,6.16-.22,7.87,1.41A5.3,5.3,0,0,1,209.32,47.38Z"/><circle class="cls-6" cx="207.34" cy="44.91" r="0.55"/><path class="cls-6" d="M201.8,47.93a.18.18,0,0,1-.14-.06,2.62,2.62,0,0,1-.24-2.71.18.18,0,0,1,.33.16,2.3,2.3,0,0,0,.19,2.3.18.18,0,0,1-.14.3Z"/><path class="cls-6" d="M203.48,47.23a.18.18,0,0,1-.15-.08,2.44,2.44,0,0,1-.11-2,.18.18,0,0,1,.34.13,2.11,2.11,0,0,0,.07,1.69.18.18,0,0,1-.15.29Z"/></svg>