<?xml version="1.0" encoding="utf-8"?>
<!-- Generator: Adobe Illustrator 12.0.0, SVG Export Plug-In . SVG Version: 6.00 Build 51448)  -->
<!DOCTYPE svg PUBLIC "-//W3C//DTD SVG 1.1//EN" "http://www.w3.org/Graphics/SVG/1.1/DTD/svg11.dtd" [
	<!ENTITY ns_svg "http://www.w3.org/2000/svg">
	<!ENTITY ns_xlink "http://www.w3.org/1999/xlink">
]>
<svg  version="1.1" xmlns="&ns_svg;" xmlns:xlink="&ns_xlink;" width="1356" height="570" viewBox="0 0 1356 570"
	 overflow="visible" enable-background="new 0 0 1356 570" xml:space="preserve">
<g id="Layer_2">
	<rect fill="#FFFFFF" width="1356" height="570"/>
</g>
<g id="Layer_1">
	<g>
		<path fill="none" stroke="#FFFFFF" stroke-width="0" stroke-linecap="round" stroke-linejoin="round" d="M1342.601,111.237
			c-183.226,99.576-382.55,147.525-597.976,143.851l-385-22.75l-269.5,1.75"/>
		<polyline fill="none" stroke="#FFFFFF" stroke-width="0" stroke-linecap="round" stroke-linejoin="round" points="90.125,524.413 
			359.625,527.913 744.625,533.163 1343.125,533.163 		"/>
		
			<line fill="none" stroke="#000000" stroke-linecap="round" stroke-linejoin="round" x1="359.625" y1="527.913" x2="359.625" y2="517.413"/>
		
			<line fill="none" stroke="#000000" stroke-linecap="round" stroke-linejoin="round" x1="359.625" y1="506.913" x2="359.625" y2="496.413"/>
		
			<line fill="none" stroke="#000000" stroke-linecap="round" stroke-linejoin="round" x1="359.625" y1="486.088" x2="359.625" y2="475.588"/>
		
			<line fill="none" stroke="#000000" stroke-linecap="round" stroke-linejoin="round" x1="359.625" y1="464.913" x2="359.625" y2="454.413"/>
		
			<line fill="none" stroke="#000000" stroke-linecap="round" stroke-linejoin="round" x1="359.625" y1="443.913" x2="359.625" y2="433.413"/>
		
			<line fill="none" stroke="#000000" stroke-linecap="round" stroke-linejoin="round" x1="359.625" y1="422.913" x2="359.625" y2="412.413"/>
		
			<line fill="none" stroke="#000000" stroke-linecap="round" stroke-linejoin="round" x1="359.625" y1="401.913" x2="359.625" y2="391.413"/>
		
			<line fill="none" stroke="#000000" stroke-linecap="round" stroke-linejoin="round" x1="359.625" y1="380.913" x2="359.625" y2="370.413"/>
		
			<line fill="none" stroke="#000000" stroke-linecap="round" stroke-linejoin="round" x1="359.625" y1="359.913" x2="359.625" y2="349.413"/>
		
			<line fill="none" stroke="#000000" stroke-linecap="round" stroke-linejoin="round" x1="359.625" y1="338.913" x2="359.625" y2="328.413"/>
		
			<line fill="none" stroke="#000000" stroke-linecap="round" stroke-linejoin="round" x1="359.625" y1="317.913" x2="359.625" y2="307.413"/>
		
			<line fill="none" stroke="#000000" stroke-linecap="round" stroke-linejoin="round" x1="359.625" y1="296.913" x2="359.625" y2="286.413"/>
		
			<line fill="none" stroke="#000000" stroke-linecap="round" stroke-linejoin="round" x1="359.625" y1="275.913" x2="359.625" y2="265.413"/>
		
			<line fill="none" stroke="#000000" stroke-linecap="round" stroke-linejoin="round" x1="359.625" y1="254.913" x2="359.625" y2="244.413"/>
		
			<line fill="none" stroke="#000000" stroke-linecap="round" stroke-linejoin="round" x1="359.625" y1="233.913" x2="359.625" y2="232.338"/>
		
			<line fill="none" stroke="#000000" stroke-linecap="round" stroke-linejoin="round" x1="90.125" y1="234.088" x2="90.125" y2="244.588"/>
		
			<line fill="none" stroke="#000000" stroke-linecap="round" stroke-linejoin="round" x1="90.125" y1="255.088" x2="90.125" y2="265.588"/>
		
			<line fill="none" stroke="#000000" stroke-linecap="round" stroke-linejoin="round" x1="90.125" y1="276.088" x2="90.125" y2="286.588"/>
		
			<line fill="none" stroke="#000000" stroke-linecap="round" stroke-linejoin="round" x1="90.125" y1="297.088" x2="90.125" y2="307.588"/>
		
			<line fill="none" stroke="#000000" stroke-linecap="round" stroke-linejoin="round" x1="90.125" y1="318.088" x2="90.125" y2="328.588"/>
		
			<line fill="none" stroke="#000000" stroke-linecap="round" stroke-linejoin="round" x1="90.125" y1="339.088" x2="90.125" y2="349.588"/>
		
			<line fill="none" stroke="#000000" stroke-linecap="round" stroke-linejoin="round" x1="90.125" y1="360.088" x2="90.125" y2="370.588"/>
		
			<line fill="none" stroke="#000000" stroke-linecap="round" stroke-linejoin="round" x1="90.125" y1="381.088" x2="90.125" y2="391.588"/>
		
			<line fill="none" stroke="#000000" stroke-linecap="round" stroke-linejoin="round" x1="90.125" y1="402.088" x2="90.125" y2="412.588"/>
		
			<line fill="none" stroke="#000000" stroke-linecap="round" stroke-linejoin="round" x1="90.125" y1="423.088" x2="90.125" y2="433.588"/>
		
			<line fill="none" stroke="#000000" stroke-linecap="round" stroke-linejoin="round" x1="90.125" y1="444.088" x2="90.125" y2="454.588"/>
		
			<line fill="none" stroke="#000000" stroke-linecap="round" stroke-linejoin="round" x1="90.125" y1="465.088" x2="90.125" y2="475.588"/>
		
			<line fill="none" stroke="#000000" stroke-linecap="round" stroke-linejoin="round" x1="90.125" y1="486.088" x2="90.125" y2="496.588"/>
		
			<line fill="none" stroke="#000000" stroke-linecap="round" stroke-linejoin="round" x1="90.125" y1="507.088" x2="90.125" y2="517.588"/>
		
			<line fill="none" stroke="#000000" stroke-linecap="round" stroke-linejoin="round" x1="744.625" y1="533.163" x2="744.625" y2="522.663"/>
		
			<line fill="none" stroke="#000000" stroke-linecap="round" stroke-linejoin="round" x1="744.625" y1="512.163" x2="744.625" y2="501.663"/>
		
			<line fill="none" stroke="#000000" stroke-linecap="round" stroke-linejoin="round" x1="744.625" y1="491.338" x2="744.625" y2="480.838"/>
		
			<line fill="none" stroke="#000000" stroke-linecap="round" stroke-linejoin="round" x1="744.625" y1="470.163" x2="744.625" y2="459.663"/>
		
			<line fill="none" stroke="#000000" stroke-linecap="round" stroke-linejoin="round" x1="744.625" y1="449.163" x2="744.625" y2="438.663"/>
		
			<line fill="none" stroke="#000000" stroke-linecap="round" stroke-linejoin="round" x1="744.625" y1="428.163" x2="744.625" y2="417.663"/>
		
			<line fill="none" stroke="#000000" stroke-linecap="round" stroke-linejoin="round" x1="744.625" y1="407.163" x2="744.625" y2="396.663"/>
		
			<line fill="none" stroke="#000000" stroke-linecap="round" stroke-linejoin="round" x1="744.625" y1="386.163" x2="744.625" y2="375.663"/>
		
			<line fill="none" stroke="#000000" stroke-linecap="round" stroke-linejoin="round" x1="744.625" y1="365.163" x2="744.625" y2="354.663"/>
		
			<line fill="none" stroke="#000000" stroke-linecap="round" stroke-linejoin="round" x1="744.625" y1="344.163" x2="744.625" y2="333.663"/>
		
			<line fill="none" stroke="#000000" stroke-linecap="round" stroke-linejoin="round" x1="744.625" y1="323.163" x2="744.625" y2="312.663"/>
		
			<line fill="none" stroke="#000000" stroke-linecap="round" stroke-linejoin="round" x1="744.625" y1="302.163" x2="744.625" y2="291.663"/>
		
			<line fill="none" stroke="#000000" stroke-linecap="round" stroke-linejoin="round" x1="744.625" y1="281.163" x2="744.625" y2="270.663"/>
		
			<line fill="none" stroke="#000000" stroke-linecap="round" stroke-linejoin="round" x1="744.625" y1="260.163" x2="744.625" y2="255.088"/>
		
			<line fill="none" stroke="#000000" stroke-linecap="round" stroke-linejoin="round" x1="1343.125" y1="533.163" x2="1343.125" y2="522.663"/>
		
			<line fill="none" stroke="#000000" stroke-linecap="round" stroke-linejoin="round" x1="1343.125" y1="512.163" x2="1343.125" y2="501.663"/>
		
			<line fill="none" stroke="#000000" stroke-linecap="round" stroke-linejoin="round" x1="1343.125" y1="491.338" x2="1343.125" y2="480.838"/>
		
			<line fill="none" stroke="#000000" stroke-linecap="round" stroke-linejoin="round" x1="1343.125" y1="470.163" x2="1343.125" y2="459.663"/>
		
			<line fill="none" stroke="#000000" stroke-linecap="round" stroke-linejoin="round" x1="1343.125" y1="449.163" x2="1343.125" y2="438.663"/>
		
			<line fill="none" stroke="#000000" stroke-linecap="round" stroke-linejoin="round" x1="1343.125" y1="428.163" x2="1343.125" y2="417.663"/>
		
			<line fill="none" stroke="#000000" stroke-linecap="round" stroke-linejoin="round" x1="1343.125" y1="407.163" x2="1343.125" y2="396.663"/>
		
			<line fill="none" stroke="#000000" stroke-linecap="round" stroke-linejoin="round" x1="1343.125" y1="386.163" x2="1343.125" y2="375.663"/>
		
			<line fill="none" stroke="#000000" stroke-linecap="round" stroke-linejoin="round" x1="1343.125" y1="365.163" x2="1343.125" y2="354.663"/>
		
			<line fill="none" stroke="#000000" stroke-linecap="round" stroke-linejoin="round" x1="1343.125" y1="344.163" x2="1343.125" y2="333.663"/>
		
			<line fill="none" stroke="#000000" stroke-linecap="round" stroke-linejoin="round" x1="1343.125" y1="323.163" x2="1343.125" y2="312.663"/>
		
			<line fill="none" stroke="#000000" stroke-linecap="round" stroke-linejoin="round" x1="1343.125" y1="302.163" x2="1343.125" y2="291.663"/>
		
			<line fill="none" stroke="#000000" stroke-linecap="round" stroke-linejoin="round" x1="1343.125" y1="281.163" x2="1343.125" y2="270.663"/>
		
			<line fill="none" stroke="#000000" stroke-linecap="round" stroke-linejoin="round" x1="1343.125" y1="260.163" x2="1343.125" y2="249.663"/>
		
			<line fill="none" stroke="#000000" stroke-linecap="round" stroke-linejoin="round" x1="1343.125" y1="239.163" x2="1343.125" y2="228.663"/>
		
			<line fill="none" stroke="#000000" stroke-linecap="round" stroke-linejoin="round" x1="1343.125" y1="218.163" x2="1343.125" y2="207.663"/>
		
			<line fill="none" stroke="#000000" stroke-linecap="round" stroke-linejoin="round" x1="1343.125" y1="197.163" x2="1343.125" y2="186.663"/>
		
			<line fill="none" stroke="#000000" stroke-linecap="round" stroke-linejoin="round" x1="1343.125" y1="176.163" x2="1343.125" y2="165.663"/>
		
			<line fill="none" stroke="#000000" stroke-linecap="round" stroke-linejoin="round" x1="1342.95" y1="155.163" x2="1342.95" y2="144.663"/>
		
			<line fill="none" stroke="#000000" stroke-linecap="round" stroke-linejoin="round" x1="1342.774" y1="134.163" x2="1342.774" y2="123.663"/>
		
			<line fill="none" stroke="#000000" stroke-linecap="round" stroke-linejoin="round" x1="1342.601" y1="113.163" x2="1342.601" y2="111.237"/>
	</g>
	<g>
		
			<linearGradient id="XMLID_5_" gradientUnits="userSpaceOnUse" x1="-450.7532" y1="634.1445" x2="2416.4473" y2="634.1445" gradientTransform="matrix(0 0.1087 -0.4362 0 993.7989 284.6159)">
			<stop  offset="0" style="stop-color:#A7A9AC"/>
			<stop  offset="1" style="stop-color:#FFFFFF"/>
		</linearGradient>
		<path fill="url(#XMLID_5_)" d="M1284.5,145.713l24.5,4.375c14.875-22.05,26.075-34.825,33.601-38.851
			c-58.276-8.049-165.726,26.425-322.701,103.425c-0.524,0.35-1.049,0.525-1.575,0.7c-1.399,0.701-2.625,1.4-4.024,2.101
			c-2.276,1.05-4.726,2.1-7.351,2.975l-4.2,1.75c-5.95,9.275-11.375,11.2-16.274,5.775c-22.925-6.825-47.425-12.075-73.5-15.75
			h32.375c9.45-2.45,7.7-7.175-5.601-14.525c-7.875-9.975-11.726-20.826-11.899-32.725c-8.925,0.35-18.901,2.975-29.576,7.875
			c-1.575,0.7-2.974,1.399-4.549,2.1c-3.675,3.85-8.401,5.6-13.826,5.6c-2.274-0.175-4.549-0.525-7.174-1.225
			c-13.3,8.4-27.651,14-43.226,17.15c-67.55-10.851-135.274-17.15-203-19.25l51.625-9.625c-27.649-10.851-35.175-43.05-22.75-96.25
			c-29.75,8.399-65.101,33.425-105.875,74.375c-5.075,3.149-11.899,5.425-20.3,6.3l-18.2,18.55
			c-315.875,21.7-453.25,46.9-412.125,75.775c19.6,7,41.825,13.3,66.675,18.899c1.399,0.175,2.8,0.525,4.375,0.875
			c2.625,0.525,5.425,1.05,8.224,1.75c0,0,0,0,0.175,0c1.226,0.175,2.45,0.525,3.675,0.701c0.175,0,0.175,0,0.175,0
			c4.024,0.875,8.224,1.575,12.25,2.275c10.675,1.75,21.7,3.325,33.075,4.725l4.375,0.525l-4.375-0.525
			c-10.85-0.875-21-1.05-30.45-0.35h-0.175c-2.975,0.35-5.775,0.524-8.75,1.05l0,0c-1.4,0-2.625,0.175-3.85,0.525
			c-0.525,0-1.049,0.175-1.75,0.35c-1.924,0.35-3.849,0.7-5.599,1.05c-1.226,0.35-2.45,0.7-3.675,0.875
			c-0.35,0.174-0.875,0.35-1.225,0.525c-0.875,0.175-1.75,0.35-2.625,0.7l-0.174,0.35c37.099,22.575,106.575,35.875,208.075,40.075
			c-3.851-8.575-7.7-17.325-11.55-26.25c3.851,8.925,7.7,17.675,11.55,26.25c55.825,124.075,100.974,180.6,135.45,169.75
			c-9.274-52.325-9.274-100.625,0-145.25c2.976-4.375,3.5-8.4,1.925-12.25c-4.026-9.45-21.526-17.675-52.675-24.5
			c31.149,6.825,48.649,15.05,52.675,24.5c58.45,3.5,115.5-1.575,171.325-14.875c22.925,10.325,43.925,23.45,63,39.375
			c3.5,4.2,9.976,0.175,19.25-12.25c4.55-7.525,14.7-14.525,30.45-21.175c1.226-0.525,2.45-1.05,3.675-1.575
			c3.675-3.851,0.351-8.575-9.8-14.7c-5.425-3.15-12.95-6.825-22.575-10.675c57.925-11.9,103.95-2.275,138.25,28.875
			c15.399,13.125,22.925,12.6,22.399-1.75l2.101-17.5l34.125-8.75l-48.125-14l62.125-13.125c10.675,2.1,17.851,8.399,21.875,19.25
			c30.274,37.625,77.175,71.399,140.875,101.5c-13.3-27.125-23.8-54.25-31.5-81.375c-7-17.851,6.649-38.15,41.125-61.25
			L1284.5,145.713z M1052.976,255.438h-208.25H1052.976z M364.875,261.213c-5.775,9.625-7.175,19.25-4.375,28.875
			C357.7,280.463,359.1,270.838,364.875,261.213z M356.125,255.088c-8.05,14.175-9.8,27.3-5.25,39.375
			C346.325,282.388,348.075,269.263,356.125,255.088z M316.75,249.838c-8.4,18.725-8.4,32.024,0,40.25
			C308.35,281.862,308.35,268.563,316.75,249.838z M333.375,250.713c-10.85,12.774-12.6,27.649-5.25,44.625
			C320.775,278.362,322.525,263.487,333.375,250.713z M343.875,252.463c-7.7,12.95-9.1,28.175-4.375,45.5
			C334.775,280.638,336.175,265.413,343.875,252.463z M233.1,230.588c0-0.525,0.174-0.875,0.525-1.226
			c0.35-0.35,0.7-0.524,1.225-0.524c0.525,0,1.049,0.175,1.4,0.524c0.35,0.351,0.525,0.701,0.525,1.226
			c0,0.524-0.174,1.05-0.525,1.399c-0.35,0.351-0.875,0.525-1.4,0.525c-0.526,0-0.875-0.175-1.225-0.525
			C233.275,231.638,233.1,231.112,233.1,230.588z M138.775,244.938l3.5-3.5L138.775,244.938z M138.775,245.813h7l-4.375,4.9
			l4.375-4.9H138.775z M187.775,225.688c2.276,0,4.201,0.875,5.776,2.45c1.75,1.75,2.45,3.675,2.45,5.95c0,2.274-0.7,4.2-2.45,5.774
			c-1.575,1.75-3.5,2.451-5.776,2.451c-2.275,0-4.2-0.701-5.95-2.451c-1.575-1.575-2.45-3.5-2.45-5.774c0-2.275,0.875-4.2,2.45-5.95
			C183.575,226.563,185.5,225.688,187.775,225.688z M225.75,263.838c21.875,2.625,23.625,8.925,5.25,19.25
			C249.375,272.763,247.625,266.463,225.75,263.838z M102.375,236.188H129.5H102.375z"/>
		<path fill="#FFFFFF" d="M233.625,229.362c-0.35,0.351-0.525,0.701-0.525,1.226c0,0.524,0.174,1.05,0.525,1.399
			c0.35,0.351,0.7,0.525,1.225,0.525c0.525,0,1.049-0.175,1.4-0.525c0.35-0.35,0.525-0.875,0.525-1.399
			c0-0.525-0.174-0.875-0.525-1.226c-0.35-0.35-0.875-0.524-1.4-0.524C234.325,228.838,233.975,229.013,233.625,229.362z"/>
		<path fill="#FFFFFF" d="M193.55,228.138c-1.575-1.575-3.5-2.45-5.776-2.45c-2.275,0-4.2,0.875-5.95,2.45
			c-1.575,1.75-2.45,3.675-2.45,5.95c0,2.274,0.875,4.2,2.45,5.774c1.75,1.75,3.675,2.451,5.95,2.451
			c2.276,0,4.201-0.701,5.776-2.451c1.75-1.575,2.45-3.5,2.45-5.774C196,231.813,195.3,229.888,193.55,228.138z M190.75,233.563
			c0,1.049-0.35,1.924-1.05,2.45c-0.524,0.7-1.399,1.05-2.45,1.05c-0.875,0-1.75-0.35-2.45-1.05c-0.7-0.525-1.05-1.4-1.05-2.45
			c0-0.875,0.35-1.75,1.05-2.451c0.7-0.7,1.575-1.049,2.45-1.049c1.05,0,1.925,0.35,2.45,1.049
			C190.4,231.813,190.75,232.688,190.75,233.563z"/>
		<path d="M189.7,236.013c0.7-0.525,1.05-1.4,1.05-2.45c0-0.875-0.35-1.75-1.05-2.451c-0.524-0.7-1.399-1.049-2.45-1.049
			c-0.875,0-1.75,0.35-2.45,1.049c-0.7,0.701-1.05,1.576-1.05,2.451c0,1.049,0.35,1.924,1.05,2.45c0.7,0.7,1.575,1.05,2.45,1.05
			C188.3,237.063,189.175,236.713,189.7,236.013z"/>
		
			<linearGradient id="XMLID_6_" gradientUnits="userSpaceOnUse" x1="802.4263" y1="214.4438" x2="3669.6265" y2="214.4438" gradientTransform="matrix(0 0.0117 -0.0064 0 899.385 206.2678)">
			<stop  offset="0" style="stop-color:#A7A9AC"/>
			<stop  offset="1" style="stop-color:#FFFFFF"/>
		</linearGradient>
		<path fill="url(#XMLID_6_)" d="M897.226,167.063c-8.226,2.45-14.175,7-17.326,13.475c5.425,0,10.151-1.75,13.826-5.6
			c1.575-0.701,2.974-1.4,4.549-2.1L897.226,167.063z"/>
		
			<linearGradient id="XMLID_7_" gradientUnits="userSpaceOnUse" x1="-450.7622" y1="378.4639" x2="2416.4663" y2="378.4639" gradientTransform="matrix(0 0.1087 -0.4362 0 993.7989 284.6159)">
			<stop  offset="0" style="stop-color:#A7A9AC"/>
			<stop  offset="1" style="stop-color:#FFFFFF"/>
		</linearGradient>
		<path fill="url(#XMLID_7_)" d="M792.575,307.763c10.151,6.125,13.476,10.85,9.8,14.7c-1.226,0.524-2.45,1.05-3.675,1.575
			c25.026,1.4,47.25-0.35,66.151-5.075C844.726,311.263,820.575,307.588,792.575,307.763z"/>
		
			<linearGradient id="XMLID_8_" gradientUnits="userSpaceOnUse" x1="-3054.8694" y1="14961.0352" x2="-187.7036" y2="14961.0352" gradientTransform="matrix(0 0.0159 -0.0107 0 704.6825 190.0809)">
			<stop  offset="0" style="stop-color:#A7A9AC"/>
			<stop  offset="1" style="stop-color:#FFFFFF"/>
		</linearGradient>
		<path fill="url(#XMLID_8_)" d="M529.2,152.013c8.401-0.875,15.226-3.15,20.3-6.3l10.5-24.5L529.2,152.013z"/>
		<path fill="#5C2D91" d="M169.225,280.638l0.174-0.35c0,0-0.174,0-0.349,0.175L169.225,280.638z"/>
		<path fill="none" stroke="#000000" stroke-linecap="round" stroke-linejoin="round" d="M1018.325,215.362
			c0.526-0.174,1.05-0.35,1.575-0.7c156.976-77,264.425-111.475,322.701-103.425c-7.526,4.025-18.726,16.8-33.601,38.851
			l-24.5-4.375l-131.25,103.25c-34.476,23.1-48.125,43.399-41.125,61.25c7.7,27.125,18.2,54.25,31.5,81.375
			c-63.7-30.101-110.601-63.875-140.875-101.5c-4.024-10.851-11.2-17.15-21.875-19.25l-62.125,13.125l48.125,14l-34.125,8.75
			l-2.101,17.5c0.526,14.35-7,14.875-22.399,1.75c-34.3-31.15-80.325-40.775-138.25-28.875c9.625,3.85,17.149,7.524,22.575,10.675"
			/>
		<path fill="none" stroke="#000000" stroke-linecap="round" stroke-linejoin="round" d="M898.274,172.838
			c10.675-4.9,20.651-7.525,29.576-7.875c0.174,11.899,4.024,22.75,11.899,32.725c13.3,7.35,15.05,12.075,5.601,14.525h-32.375
			c26.075,3.675,50.575,8.925,73.5,15.75c4.899,5.425,10.325,3.5,16.274-5.775l4.2-1.75"/>
		<path fill="none" stroke="#000000" stroke-linecap="round" stroke-linejoin="round" d="M898.274,172.838l-1.049-5.775
			c-8.226,2.45-14.175,7-17.326,13.475"/>
		<path fill="none" stroke="#000000" stroke-linecap="round" stroke-linejoin="round" d="M549.5,145.713
			c40.774-40.95,76.125-65.976,105.875-74.375c-12.425,53.2-4.899,85.399,22.75,96.25l-51.625,9.625
			c67.726,2.1,135.45,8.399,203,19.25c15.575-3.15,29.925-8.75,43.226-17.15c2.625,0.7,4.899,1.049,7.174,1.225"/>
		<path fill="none" stroke="#000000" stroke-linecap="round" stroke-linejoin="round" d="M879.899,180.538
			c5.425,0,10.151-1.75,13.826-5.6c1.575-0.701,2.974-1.4,4.549-2.1"/>
		
			<line fill="none" stroke="#000000" stroke-linecap="round" stroke-linejoin="round" x1="1006.95" y1="220.438" x2="1018.325" y2="215.362"/>
		<path fill="none" stroke="#000000" stroke-linecap="round" stroke-linejoin="round" d="M1006.95,220.438
			c2.625-0.875,5.075-1.925,7.351-2.975c1.399-0.7,2.625-1.4,4.024-2.101"/>
		
			<line fill="none" stroke="#000000" stroke-linecap="round" stroke-linejoin="round" x1="844.726" y1="255.438" x2="1052.976" y2="255.438"/>
		<path fill="none" stroke="#000000" stroke-linecap="round" stroke-linejoin="round" d="M792.575,307.763
			c10.151,6.125,13.476,10.85,9.8,14.7c-1.226,0.524-2.45,1.05-3.675,1.575"/>
		<path fill="none" stroke="#000000" stroke-linecap="round" stroke-linejoin="round" d="M798.7,324.038
			c-15.75,6.65-25.899,13.65-30.45,21.175c-9.274,12.425-15.75,16.45-19.25,12.25c-19.075-15.925-40.075-29.05-63-39.375
			c-55.825,13.3-112.875,18.375-171.325,14.875"/>
		<path fill="none" stroke="#000000" stroke-linecap="round" stroke-linejoin="round" d="M798.7,324.038
			c25.026,1.4,47.25-0.35,66.151-5.075c-20.125-7.7-44.276-11.375-72.276-11.2"/>
		<path fill="none" stroke="#000000" stroke-linecap="round" stroke-linejoin="round" d="M529.2,152.013
			c8.401-0.875,15.226-3.15,20.3-6.3"/>
		<path fill="none" stroke="#000000" stroke-linecap="round" stroke-linejoin="round" d="M360.5,290.088
			c-2.8-9.625-1.4-19.25,4.375-28.875"/>
		<path fill="none" stroke="#000000" stroke-linecap="round" stroke-linejoin="round" d="M350.875,294.463
			c-4.55-12.075-2.8-25.2,5.25-39.375"/>
		<path fill="none" stroke="#000000" stroke-linecap="round" stroke-linejoin="round" d="M377.3,320.713
			c-3.851-8.575-7.7-17.325-11.55-26.25"/>
		<path fill="none" stroke="#000000" stroke-linecap="round" stroke-linejoin="round" d="M316.75,290.088
			c-8.4-8.226-8.4-21.525,0-40.25"/>
		<path fill="none" stroke="#000000" stroke-linecap="round" stroke-linejoin="round" d="M328.125,295.338
			c-7.35-16.976-5.6-31.851,5.25-44.625"/>
		<path fill="none" stroke="#000000" stroke-linecap="round" stroke-linejoin="round" d="M339.5,297.963
			c-4.725-17.325-3.325-32.55,4.375-45.5"/>
		<path fill="none" stroke="#000000" stroke-linecap="round" stroke-linejoin="round" d="M462,308.463
			c31.149,6.825,48.649,15.05,52.675,24.5"/>
		<path fill="none" stroke="#000000" stroke-linecap="round" stroke-linejoin="round" d="M165.55,265.237
			c-24.851-5.6-47.075-11.899-66.675-18.899C57.75,217.463,195.125,192.263,511,170.563l18.2-18.55"/>
		<path fill="none" stroke="#000000" stroke-linecap="round" stroke-linejoin="round" d="M233.1,230.588
			c0,0.524,0.174,1.05,0.525,1.399c0.35,0.351,0.7,0.525,1.225,0.525c0.525,0,1.049-0.175,1.4-0.525
			c0.35-0.35,0.525-0.875,0.525-1.399c0-0.525-0.174-0.875-0.525-1.226c-0.35-0.35-0.875-0.524-1.4-0.524
			c-0.526,0-0.875,0.175-1.225,0.524C233.275,229.713,233.1,230.063,233.1,230.588"/>
		
			<line fill="none" stroke="#000000" stroke-linecap="round" stroke-linejoin="round" x1="142.275" y1="241.438" x2="138.775" y2="244.938"/>
		<polyline fill="none" stroke="#000000" stroke-linecap="round" stroke-linejoin="round" points="141.4,250.713 145.775,245.813 
			138.775,245.813 		"/>
		<path fill="none" stroke="#000000" stroke-linecap="round" stroke-linejoin="round" d="M187.775,225.688
			c-2.275,0-4.2,0.875-5.95,2.45c-1.575,1.75-2.45,3.675-2.45,5.95c0,2.274,0.875,4.2,2.45,5.774c1.75,1.75,3.675,2.451,5.95,2.451
			c2.276,0,4.201-0.701,5.776-2.451c1.75-1.575,2.45-3.5,2.45-5.774c0-2.275-0.7-4.2-2.45-5.95
			C191.975,226.563,190.05,225.688,187.775,225.688"/>
		<path fill="none" stroke="#000000" stroke-linecap="round" stroke-linejoin="round" d="M227.5,275.563
			c-11.375-1.4-22.4-2.975-33.075-4.725c-4.026-0.7-8.226-1.4-12.25-2.275c0,0,0,0-0.175,0c-1.225-0.175-2.45-0.525-3.675-0.701"/>
		<polyline fill="none" stroke="#000000" stroke-linecap="round" stroke-linejoin="round" points="186.375,270.838 182.875,271.713 
			182,269.438 179.025,270.313 		"/>
		<path fill="none" stroke="#000000" stroke-linecap="round" stroke-linejoin="round" d="M169.925,266.112
			c-1.575-0.35-2.976-0.7-4.375-0.875"/>
		
			<line fill="none" stroke="#000000" stroke-linecap="round" stroke-linejoin="round" x1="169.925" y1="266.112" x2="169.75" y2="266.288"/>
		<polyline fill="none" stroke="#000000" stroke-linecap="round" stroke-linejoin="round" points="169.75,266.288 166.25,269.088 
			165.55,265.237 		"/>
		<polyline fill="none" stroke="#000000" stroke-linecap="round" stroke-linejoin="round" points="178.325,267.862 174.125,270.838 
			172.9,267.688 169.75,269.088 169.75,266.288 		"/>
		<path fill="none" stroke="#000000" stroke-linecap="round" stroke-linejoin="round" d="M178.325,267.862c-0.175,0-0.175,0-0.175,0
			c-2.799-0.7-5.599-1.225-8.224-1.75"/>
		<polyline fill="none" stroke="#000000" stroke-linecap="round" stroke-linejoin="round" points="176.575,278.013 175,276.088 
			173.25,279.063 		"/>
		<polyline fill="none" stroke="#000000" stroke-linecap="round" stroke-linejoin="round" points="176.575,278.013 179.9,274.688 
			182.525,277.138 		"/>
		
			<line fill="none" stroke="#000000" stroke-linecap="round" stroke-linejoin="round" x1="176.925" y1="278.188" x2="176.575" y2="278.013"/>
		<path fill="none" stroke="#000000" stroke-linecap="round" stroke-linejoin="round" d="M173.25,279.063
			c1.225-0.175,2.45-0.525,3.675-0.875"/>
		<path fill="none" stroke="#000000" stroke-linecap="round" stroke-linejoin="round" d="M172.025,279.588
			c0.35-0.175,0.875-0.351,1.225-0.525"/>
		<polyline fill="none" stroke="#000000" stroke-linecap="round" stroke-linejoin="round" points="172.025,279.588 170.625,276.963 
			169.4,280.288 		"/>
		<path fill="none" stroke="#000000" stroke-linecap="round" stroke-linejoin="round" d="M377.3,320.713
			c-101.5-4.2-170.976-17.5-208.075-40.075c-0.175-0.175-0.175-0.175-0.35-0.175c0.175,0,0.175,0,0.175,0
			c0.175-0.175,0.349-0.175,0.349-0.175"/>
		<path fill="none" stroke="#000000" stroke-linecap="round" stroke-linejoin="round" d="M169.4,280.288
			c0.875-0.35,1.75-0.525,2.625-0.7"/>
		<path fill="none" stroke="#000000" stroke-linecap="round" stroke-linejoin="round" d="M184.275,276.788
			c1.225-0.35,2.451-0.525,3.85-0.525l0,0c2.975-0.525,5.775-0.7,8.75-1.05h0.175"/>
		<path fill="none" stroke="#000000" stroke-linecap="round" stroke-linejoin="round" d="M182.525,277.138
			c0.701-0.175,1.225-0.35,1.75-0.35"/>
		<path fill="none" stroke="#000000" stroke-linecap="round" stroke-linejoin="round" d="M176.925,278.188
			c1.75-0.35,3.675-0.701,5.599-1.05"/>
		<polyline fill="none" stroke="#000000" stroke-linecap="round" stroke-linejoin="round" points="197.05,275.213 194.25,272.063 
			191.45,274.513 189.875,272.938 187.95,275.038 185.15,273.813 184.275,276.788 		"/>
		<path fill="none" stroke="#000000" stroke-linecap="round" stroke-linejoin="round" d="M231,283.088
			c18.375-10.325,16.625-16.625-5.25-19.25"/>
		
			<line fill="none" stroke="#000000" stroke-linecap="round" stroke-linejoin="round" x1="231.875" y1="276.088" x2="227.5" y2="275.563"/>
		<path fill="none" stroke="#000000" stroke-linecap="round" stroke-linejoin="round" d="M227.5,275.563
			c-10.85-0.875-21-1.05-30.45-0.35"/>
		
			<line fill="none" stroke="#000000" stroke-linecap="round" stroke-linejoin="round" x1="129.5" y1="236.188" x2="102.375" y2="236.188"/>
		<path fill="none" stroke="#000000" stroke-linecap="round" stroke-linejoin="round" d="M514.675,332.963
			c1.575,3.85,1.05,7.875-1.925,12.25c-9.274,44.625-9.274,92.925,0,145.25c-34.476,10.85-79.625-45.675-135.45-169.75"/>
		<polyline fill="none" stroke="#000000" stroke-linecap="round" stroke-linejoin="round" points="549.5,145.713 560,121.213 
			529.2,152.013 		"/>
	</g>
	<g>
		
			<line fill="none" stroke="#000000" stroke-linecap="round" stroke-linejoin="round" x1="1191.75" y1="227.963" x2="1228.5" y2="237.588"/>
		
			<line fill="none" stroke="#000000" stroke-linecap="round" stroke-linejoin="round" x1="933.976" y1="164.963" x2="952.875" y2="136.088"/>
		
			<line fill="none" stroke="#000000" stroke-linecap="round" stroke-linejoin="round" x1="993.125" y1="225.338" x2="1010.101" y2="169.688"/>
		
			<line fill="none" stroke="#000000" stroke-linecap="round" stroke-linejoin="round" x1="599.899" y1="94.963" x2="582.75" y2="70.813"/>
		
			<line fill="none" stroke="#000000" stroke-linecap="round" stroke-linejoin="round" x1="753.024" y1="364.813" x2="756.875" y2="383.188"/>
		
			<line fill="none" stroke="#000000" stroke-linecap="round" stroke-linejoin="round" x1="930.125" y1="341.188" x2="941.5" y2="369.188"/>
		
			<line fill="none" stroke="#000000" stroke-linecap="round" stroke-linejoin="round" x1="829.5" y1="331.213" x2="904.75" y2="420.638"/>
		
			<line fill="none" stroke="#000000" stroke-linecap="round" stroke-linejoin="round" x1="984.024" y1="259.463" x2="1035.649" y2="395.438"/>
		
			<line fill="none" stroke="#000000" stroke-linecap="round" stroke-linejoin="round" x1="539.524" y1="136.963" x2="490.524" y2="108.963"/>
		
			<line fill="none" stroke="#000000" stroke-linecap="round" stroke-linejoin="round" x1="107.275" y1="233.213" x2="91.875" y2="224.463"/>
		
			<line fill="none" stroke="#000000" stroke-linecap="round" stroke-linejoin="round" x1="181.125" y1="221.838" x2="156.625" y2="179.838"/>
		
			<line fill="none" stroke="#000000" stroke-linecap="round" stroke-linejoin="round" x1="159.25" y1="275.213" x2="133.525" y2="307.063"/>
		
			<line fill="none" stroke="#000000" stroke-linecap="round" stroke-linejoin="round" x1="139.125" y1="238.463" x2="121.275" y2="196.813"/>
		
			<line fill="none" stroke="#000000" stroke-linecap="round" stroke-linejoin="round" x1="232.75" y1="225.338" x2="221.375" y2="164.088"/>
		
			<line fill="none" stroke="#000000" stroke-linecap="round" stroke-linejoin="round" x1="514.149" y1="448.813" x2="543.024" y2="454.938"/>
		
			<line fill="none" stroke="#000000" stroke-linecap="round" stroke-linejoin="round" x1="331.625" y1="301.463" x2="310.275" y2="389.313"/>
		
			<line fill="none" stroke="#000000" stroke-linecap="round" stroke-linejoin="round" x1="240.625" y1="282.563" x2="232.4" y2="360.963"/>
		<text transform="matrix(1 0 0 1 184.625 155.4248)" font-family="'Arial'" font-size="24.5">Spiracle</text>
		<text transform="matrix(1 0 0 1 129.5 162.688)" font-family="'Arial'" font-size="24.5">Eye</text>
		<text transform="matrix(1 0 0 1 54.25 191.9126)" font-family="'Arial'" font-size="24.5">Nostril</text>
		<text transform="matrix(1 0 0 1 21.875 222.188)" font-family="'Arial'" font-size="24.5">Snout</text>
		<text transform="matrix(1 0 0 1 99.9253 327.1001)" font-family="'Arial'" font-size="24.5">Mouth</text>
		<text transform="matrix(1 0 0 1 102.375 385.1123)" font-family="'Arial'" font-size="24.5">Labial furrows</text>
		<text transform="matrix(1 0 0 1 205.2747 421.1626)" font-family="'Arial'" font-size="24.5">Gill openings</text>
		<text transform="matrix(1 0 0 1 544.25 468.063)" font-family="'Arial'" font-size="24.5">Pectoral fin</text>
		<text transform="matrix(1 0 0 1 328.125 99.688)" font-family="'Arial'" font-size="24.5">Dorsal fin spine</text>
		<text transform="matrix(1 0 0 1 502.25 55.938)" font-family="'Arial'" font-size="24.5">First dorsal fin</text>
		<text transform="matrix(1 0 0 1 752.5 408.563)" font-family="'Arial'" font-size="24.5">Pelvic fin</text>
		<text transform="matrix(1 0 0 1 819.875 448.1123)" font-family="'Arial'" font-size="24.5">Clasper (males)</text>
		<text transform="matrix(1 0 0 1 927.5 395.438)" font-family="'Arial'" font-size="24.5">Anal fin</text>
		<text transform="matrix(1 0 0 1 1013.6006 429.7373)" font-family="'Arial'" font-size="24.5">Caudal keel</text>
		<text transform="matrix(1 0 0 1 796.9497 124.7998)" font-family="'Arial'" font-size="24.5">Second dorsal fin</text>
		<text transform="matrix(1 0 0 1 969.5 161.813)" font-family="'Arial'" font-size="24.5">Precaudal pit</text>
		<text transform="matrix(1 0 0 1 1216.6875 264.5376)" font-family="'Arial'" font-size="24.5">Caudal fin</text>
		<text transform="matrix(1 0 0 1 168 532.813)" font-family="'ArialMT'" font-size="33.25">HEAD</text>
		<text transform="matrix(1 0 0 1 473.2881 532.813)" font-family="'ArialMT'" font-size="33.25">TRUNK</text>
		<text transform="matrix(1 0 0 1 978.9497 532.813)" font-family="'ArialMT'" font-size="33.25">TAIL</text>
	</g>
</g>
</svg>
