<?xml version="1.0" encoding="utf-8"?>
<!-- Generator: Adobe Illustrator 18.1.1, SVG Export Plug-In . SVG Version: 6.00 Build 0)  -->
<!DOCTYPE svg PUBLIC "-//W3C//DTD SVG 1.1//EN" "http://www.w3.org/Graphics/SVG/1.1/DTD/svg11.dtd">
<svg version="1.1" id="Layer_1" xmlns="http://www.w3.org/2000/svg" xmlns:xlink="http://www.w3.org/1999/xlink" x="0px" y="0px"
	 viewBox="-12.5 7.5 25 25" enable-background="new -12.5 7.5 25 25" xml:space="preserve">
<circle fill="#aaaaaa" cx="0" cy="20" r="11.3"/>
<path fill="#FFFFFF" d="M-3,24c0,0-2-0.1-2.9-2.5c0.6,0.2,1.4-0.1,1.4-0.1s-2.3-0.5-2.4-3.7c0.4,0.5,1.3,0.5,1.3,0.5
	s-2.2-1.4-0.9-4.8c2.8,4,6.3,3.9,6.3,3.9S-0.6,15,1,13.4c2.3-1.8,4,0.4,4,0.4s1.4-0.4,2-0.9c-0.1,1-1.2,2-1.2,2s1-0.1,1.6-0.5
	c-0.2,0.9-1.5,1.8-1.5,1.8s0.4,4.5-3,8.4c-3.4,4-9.7,2.3-10.3,0.8l0,0c0,0,1.4,0.2,2.7-0.4C-3.5,24.5-3,24-3,24"/>
</svg>
